<?xml version="1.0" encoding="iso-8859-1"?>
<!-- Generator: Adobe Illustrator 19.0.0, SVG Export Plug-In . SVG Version: 6.00 Build 0)  -->
<svg version="1.1" id="Capa_1" xmlns="http://www.w3.org/2000/svg" xmlns:xlink="http://www.w3.org/1999/xlink" x="0px" y="0px"
	 viewBox="0 0 480 480" style="enable-background:new 0 0 480 480;" xml:space="preserve">
<g>
	<g>
		<path d="M472,40h-32v16h24v56H16V56h24V40H8c-4.418,0-8,3.582-8,8v424c0,4.418,3.582,8,8,8h160v-16H16v-72h96v-16H16v-72h104v56
			h16v-56h328v56h16V48C480,43.582,476.418,40,472,40z M120,288H16v-72h104V288z M120,200H16v-72h104V200z M232,288h-96v-72h96V288z
			 M232,200h-96v-72h96V200z M344,288h-96v-72h96V288z M344,200h-96v-72h96V200z M464,288H360v-72h104V288z M464,200H360v-72h104
			V200z"/>
	</g>
</g>
<g>
	<g>
		<rect x="328" y="40" width="48" height="16"/>
	</g>
</g>
<g>
	<g>
		<rect x="216" y="40" width="48" height="16"/>
	</g>
</g>
<g>
	<g>
		<rect x="104" y="40" width="48" height="16"/>
	</g>
</g>
<g>
	<g>
		<path d="M96,72V16c0-8.837-7.163-16-16-16H64c-8.837,0-16,7.163-16,16v56h-8v16h10.224C53.06,92.933,58.31,95.981,64,96h16
			c5.69-0.019,10.94-3.067,13.776-8H104V72H96z M80,80H64V16h16V80z"/>
	</g>
</g>
<g>
	<g>
		<path d="M208,72V16c0-8.837-7.163-16-16-16h-16c-8.837,0-16,7.163-16,16v56h-8v16h10.224c2.836,4.933,8.086,7.981,13.776,8h16
			c5.69-0.019,10.94-3.067,13.776-8H216V72H208z M192,80h-16V16h16V80z"/>
	</g>
</g>
<g>
	<g>
		<path d="M320,72V16c0-8.837-7.163-16-16-16h-16c-8.837,0-16,7.163-16,16v56h-8v16h10.224c2.837,4.933,8.086,7.981,13.776,8h16
			c5.69-0.019,10.94-3.067,13.776-8H328V72H320z M304,80h-16V16h16V80z"/>
	</g>
</g>
<g>
	<g>
		<path d="M432,72V16c0-8.837-7.163-16-16-16h-16c-8.837,0-16,7.163-16,16v56h-8v16h10.224c2.837,4.933,8.086,7.981,13.776,8h16
			c5.69-0.019,10.94-3.067,13.776-8H440V72H432z M416,80h-16V16h16V80z"/>
	</g>
</g>
<g>
	<g>
		<path d="M464,376h-8v-16c0-8.837-7.163-16-16-16h-16c0-8.837-7.163-16-16-16h-16c-0.708,0.024-1.414,0.096-2.112,0.216
			c-2.799-5.052-8.112-8.195-13.888-8.216h-16c-8.837,0-16,7.163-16,16v40h-80v-40c0-8.837-7.163-16-16-16h-16
			c-5.776,0.021-11.089,3.164-13.888,8.216c-0.698-0.12-1.404-0.192-2.112-0.216h-16c-8.837,0-16,7.163-16,16h-16
			c-8.837,0-16,7.163-16,16v16h-8c-8.837,0-16,7.163-16,16v16c0,8.837,7.163,16,16,16h8v16c0,8.837,7.163,16,16,16h16
			c0,8.837,7.163,16,16,16h16c0.708-0.024,1.414-0.097,2.112-0.216c2.799,5.052,8.112,8.195,13.888,8.216h16c8.837,0,16-7.163,16-16
			v-40h80v40c0,8.837,7.163,16,16,16h16c5.776-0.021,11.089-3.164,13.888-8.216c0.698,0.119,1.404,0.192,2.112,0.216h16
			c8.837,0,16-7.163,16-16h16c8.837,0,16-7.163,16-16v-16h8c8.837,0,16-7.163,16-16v-16C480,383.163,472.837,376,464,376z M152,408
			h-8v-16h8V408z M184,440h-16v-80h16V440z M216,456h-16V344h16V456z M248,464h-16V336h16V464z M344,408h-80v-16h80V408z M376,344
			v120h-16V336h16V344z M408,360v96h-16V344h16V360z M440,440h-16v-80h16V440z M464,408h-8v-16h8V408z"/>
	</g>
</g>
<g>
	<g>
		<rect x="88" y="176" width="16" height="16"/>
	</g>
</g>
<g>
	<g>
		<rect x="312" y="176" width="16" height="16"/>
	</g>
</g>
<g>
	<g>
		<rect x="280" y="176" width="16" height="16"/>
	</g>
</g>
<g>
	<g>
		<rect x="432" y="264" width="16" height="16"/>
	</g>
</g>
<g>
</g>
<g>
</g>
<g>
</g>
<g>
</g>
<g>
</g>
<g>
</g>
<g>
</g>
<g>
</g>
<g>
</g>
<g>
</g>
<g>
</g>
<g>
</g>
<g>
</g>
<g>
</g>
<g>
</g>
</svg>
